<?xml version="1.0" standalone="no"?>
<!DOCTYPE svg PUBLIC "-//W3C//DTD SVG 1.0//EN" "http://www.w3.org/TR/2001/REC-SVG-20010904/DTD/svg10.dtd">
<svg xmlns="http://www.w3.org/2000/svg" xmlns:xlink="http://www.w3.org/1999/xlink" id="body_1" width="437" height="400">

<g transform="matrix(0.48414034 0 0 0.48414034 0.05141627 -0)">
    <path transform="matrix(1 0 0 1 -148.79073 -36.89661)"  d="M726.9495 696.70764L735.62115 716.15155C 728.57227 715.02936 722.0173 721.0493 721.86993 728.78033C 721.7226 736.51135 728.0097 744.55457 735.059 745.65344C 733.7119 751.65576 727.89813 754.302 722.8517 756.72797C 717.80524 759.15393 712.3663 763.17755 712.7417 769.5731C 713.04315 774.7085 717.2897 779.2423 721.7994 781.06525C 726.3091 782.8882 731.0407 782.608 735.608 782.30206C 728.68695 789.54193 728.0124 803.14984 734.0905 812.91284C 740.16864 822.67584 752.3072 827.48193 761.3959 823.72406C 754.974 831.7126 756.3692 846.342 764.3392 854.58624C 772.3735 862.8971 784.01715 863.7015 794.1962 862.826C 820.1178 860.63446 844.8172 850.84607 865.20306 834.686C 872.9848 828.50256 880.2535 821.2304 884.69257 811.7447C 889.13165 802.259 890.4396 790.24896 886.3048 779.4542C 887.42 792.9766 900.9548 803.657 913.1307 804.2546C 925.3066 804.8522 935.9373 797.9941 944.9712 790.17346C 956.98517 779.77295 968.1085 765.19434 966.4596 747.2065C 965.6433 738.30164 961.7538 729.7371 957.939 721.44147L957.939 721.44147L950.5434 705.35876C 947.5577 698.86597 944.5043 692.2636 940.01044 686.815C 935.5166 681.3664 929.2792 677.1485 923.03735 677.1886C 924.46454 670.6684 925.89813 663.9052 924.70215 656.9776C 923.50616 650.05 918.9264 642.8771 912.69794 641.25476C 904.7711 639.19006 898.05316 646.5051 890.08215 645.81555C 882.41144 645.152 876.07214 637.45355 868.6234 634.40314C 862.3563 631.69275 855.0789 632.9515 850.08624 637.6095C 845.36426 642.2192 843.39594 650.00745 845.0904 657.3767C 846.57477 663.83215 850.525 669.5258 852.9227 675.7516C 855.32043 681.97736 855.69257 689.9826 851.08765 693.3829C 845.531 697.4859 837.07324 691.90265 832.732 685.148C 828.39075 678.3934 825.8982 670.21466 820.4084 664.534C 813.92914 657.82947 803.7869 656.25824 797.11584 660.92554C 790.44476 665.59283 787.8935 676.04474 791.25665 684.9294C 794.00653 692.19385 800.3057 699.5429 798.12103 706.38367C 795.812 713.61346 785.70844 712.698 779.61395 707.5884C 773.5195 702.47876 769.47284 694.7825 763.4525 689.5581C 757.3385 684.2525 749.3544 681.92773 742.3453 683.41235C 735.11957 685.08875 729.24805 690.33514 726.77216 697.32745" stroke="none" fill="#E6E6E6" fill-rule="nonzero" />
    <path transform="matrix(1 0 0 1 -148.79073 -36.89661)"  d="M867.3467 642.06635L849.3541 650.4259C 846.64954 651.7616 843.582 652.1752 840.6202 651.6034C 838.0081 650.98566 836.24304 649.3886 835.7791 647.2201L835.7791 647.2201L831.5925 627.6659C 830.802 623.97723 833.85706 619.61273 838.85626 617.29004L838.85626 617.29004L848.7928 612.6734C 853.79205 610.3507 859.0978 610.8306 861.4071 613.81366L861.4071 613.81366L873.6514 629.62415C 875.0095 631.37726 875.09174 633.75616 873.8793 636.1508C 872.4061 638.7831 870.11176 640.8608 867.3467 642.06635z" stroke="none" fill="#3F3D56" fill-rule="nonzero" />
    <path transform="matrix(1 0 0 1 -148.79073 -36.89661)"  d="M309.43024 280.6588C 326.34564 234.36191 352.743 192.10767 386.93192 156.602C 415.93826 126.4903 461.08218 127.74149 461.08218 127.74149L461.08218 127.74149L461.34003 127.42149C 483.5548 100.02707 520.0345 88.6312 553.89276 98.509C 558.197 99.74414 561.50775 100.29163 563.0822 99.74149C 591.7893 89.69441 590.44055 67.01727 615.2084 48.748714C 658.5754 16.761534 802.4193 53.402214 822.7026 112.26242C 839.1417 159.9673 912.52277 183.08942 939.9384 219.57979C 944.2255 225.28554 948.4315 231.0574 952.5564 236.89537C 971.9801 265.02396 989.40546 294.48175 1004.70355 325.05078C 1014.73535 345.0229 1023.4542 365.62842 1030.8044 386.73523C 1059.3954 470.31732 1049.6183 532.59015 970.78345 517.2054C 961.45135 515.3794 952.34344 513.7457 943.45966 512.30426C 873.7893 511.33826 822.1107 524.45074 782.74066 544.8059C 776.06683 548.2478 769.7424 551.8889 763.76733 555.72925C 754.641 561.56305 745.92706 568.01807 737.68726 575.0485C 726.28455 584.8338 715.76953 595.6081 706.2648 607.24567L706.2648 607.24567L705.7426 607.88495C 659.69434 664.21094 644.5396 726.56665 612.5081 737.54565C 383.67413 783.51013 297.07404 613.3501 288.193 446.896C 287.74457 438.50827 287.49686 430.14453 287.44983 421.80472C 287.59036 412.13126 288.0168 402.52002 288.73096 393.02502C 288.99768 389.39478 289.307 385.7837 289.65903 382.1918C 290.04694 378.3184 290.4689 374.4681 290.95663 370.64197C 294.49493 331.442 300.58862 304.75806 309.43024 280.6588z" stroke="none" fill="#6C63FF" fill-rule="nonzero" />
    <path transform="matrix(1 0 0 1 -148.79073 -36.89661)"  d="M733.83356 372.24026C 722.8983 377.3314 722.71814 400.13525 726.1471 407.5241L726.1471 407.5241L732.3609 420.89832L771.9703 402.4953L765.7565 389.1211C 762.3208 381.73532 744.7768 367.16635 733.83356 372.24026z" stroke="none" fill="#3F3D56" fill-rule="nonzero" />
    <path transform="matrix(1 0 0 1 -148.79073 -36.89661)"  d="M627.39276 564.25616C 625.9783 564.25616 624.65283 563.5657 623.84216 562.40656C 623.0315 561.2474 622.83765 559.7655 623.32294 558.4368C 623.7145 557.3562 624.5223 556.47736 625.5661 555.9964L625.5661 555.9964L830.1198 460.9583C 831.16125 460.47418 832.35236 460.4236 833.4311 460.81775C 834.5098 461.21185 835.38776 462.0184 835.8718 463.05988C 836.8765 465.229 835.936 467.802 833.7693 468.8119L833.7693 468.8119L833.7688 468.8119L629.215 563.8499C 628.6446 564.11694 628.0226 564.2556 627.39276 564.25616z" stroke="none" fill="#3F3D56" fill-rule="nonzero" />
    <path transform="matrix(0.90689546 -0.4213556 0.4213556 0.90689546 -294.43393 350.60654)"  d="M771.7877 414.47433L836.26154 414.47433L836.26154 632.1547L771.7877 632.1547z" stroke="none" fill="#E6E6E6" fill-rule="nonzero" />
    <path transform="matrix(1 0 0 1 -148.79073 -36.89661)"  d="M567.90454 162.51413C 556.9693 167.60526 556.7891 190.40913 560.2181 197.79799L560.2181 197.79799L566.4319 211.1722L606.04126 192.7692L599.8274 179.395C 596.3918 172.00919 578.8478 157.44025 567.90454 162.51413z" stroke="none" fill="#3F3D56" fill-rule="nonzero" />
    <path transform="matrix(1 0 0 1 -148.79073 -36.89661)"  d="M812.9193 664.7608L794.92676 673.12036C 792.2221 674.45605 789.1546 674.8696 786.1928 674.29785C 783.5807 673.6801 781.8156 672.08307 781.35175 669.91455L781.35175 669.91455L777.16516 650.36035C 776.3747 646.6717 779.4297 642.3072 784.42896 639.9845L784.42896 639.9845L794.3655 635.36786C 799.36475 633.04517 804.6705 633.5251 806.9798 636.5081L806.9798 636.5081L819.224 652.31854C 820.5821 654.07166 820.6643 656.45056 819.45184 658.8452C 817.9787 661.4775 815.6843 663.5551 812.9193 664.7608z" stroke="none" fill="#3F3D56" fill-rule="nonzero" />
    <path transform="matrix(1 0 0 1 -148.79073 -36.89661)"  d="M757.6006 692.20654L739.608 700.5661C 736.90326 701.9018 733.83575 702.31537 730.874 701.7436C 728.2619 701.12585 726.4969 699.5288 726.03296 697.3603L726.03296 697.3603L721.8464 677.8061C 721.05585 674.11743 724.1109 669.753 729.1101 667.43024L729.1101 667.43024L739.04663 662.8136C 744.04584 660.4909 749.3516 660.9708 751.66095 663.95386L751.66095 663.95386L763.9053 679.76434C 765.26337 681.5174 765.3456 683.89636 764.1331 686.291C 762.66 688.9233 760.3656 691.0009 757.6006 692.20654z" stroke="none" fill="#3F3D56" fill-rule="nonzero" />
    <path transform="matrix(0.90689546 -0.4213556 0.4213556 0.90689546 -272.32892 299.98874)"  d="M668.3017 227.97832L732.7755 227.97832L732.7755 667.99414L668.3017 667.99414z" stroke="none" fill="#E6E6E6" fill-rule="nonzero" />
    <path d="M548.951 403.691L542.39 389.254L546.167 387.512L552.708 401.903L647.423 611.909L643.65 613.662" stroke="none" fill="#3F3D56" fill-rule="nonzero" />
    <path d="M622.951 391.691L616.39 377.254L620.167 375.512L626.708 389.903L721.423 599.909L717.65 601.662" stroke="none" fill="#3F3D56" fill-rule="nonzero" />
    <path transform="matrix(1 0 0 1 -148.79073 -36.89661)"  d="M664.67096 266.81384L585.4453 303.6231C 580.4013 295.77588 565.1959 255.56294 568.6101 243.6319L568.6101 243.6319L566.04736 232.25424L620.75085 206.83824L628.07306 215.84549C 638.94214 219.18044 660.10156 256.95132 664.67096 266.81384z" stroke="none" fill="#E6E6E6" fill-rule="nonzero" />
    <path transform="matrix(1 0 0 1 -148.79073 -36.89661)"  d="M623.03674 207.325L566.5858 233.55284C 564.5022 234.52084 562.2832 234.16501 561.6296 232.75789C 561.5358 232.55501 561.4776 232.33755 561.45746 232.11499L561.45746 232.11499L558.5358 200.94711C 558.4107 199.61246 559.5525 198.10004 561.29694 197.28955L561.29694 197.28955L598.73376 179.896C 600.4782 179.08551 602.3704 179.18831 603.30975 180.14465L603.30975 180.14465L625.2456 202.47829C 626.36755 203.62057 625.7583 205.57585 623.88477 206.84555C 623.61536 207.02779 623.3318 207.18811 623.03674 207.325z" stroke="none" fill="#E6E6E6" fill-rule="nonzero" />
    <path transform="matrix(1 0 0 1 -148.79073 -36.89661)"  d="M667.3132 451.514C 666.7021 451.51566 666.093 451.44388 665.49915 451.30014C 663.8024 450.94836 662.3639 449.83142 661.60266 448.27475L661.60266 448.27475L627.09 373.992C 625.6618 370.9168 627.5793 366.9842 631.36444 365.2254L631.36444 365.2254L681.9006 341.7454C 685.6862 339.98563 689.9279 341.0579 691.3571 344.1326L691.3571 344.1326L725.8698 418.4158C 726.56866 420.00134 726.49457 421.82104 725.6691 423.3445C 724.78284 425.04678 723.347 426.39932 721.5949 427.1824L721.5949 427.1824L671.05927 450.6614C 669.8873 451.21436 668.60895 451.5053 667.3132 451.514z" stroke="none" fill="#3F3D56" fill-rule="nonzero" />
    <path transform="matrix(0.90689546 -0.4213556 0.4213556 0.90689546 -326.76926 307.73605)"  d="M658.61224 466.20786L723.08606 466.20786L723.08606 683.88824L658.61224 683.88824z" stroke="none" fill="#E6E6E6" fill-rule="nonzero" />
    <path transform="matrix(1 0 0 1 -148.79073 -36.89661)"  d="M602.18884 210.58118L585.04193 218.54788C 581.7331 220.0852 577.26904 217.5235 575.0922 212.8382C 572.9154 208.1529 573.83655 203.08914 577.1454 201.55182L577.1454 201.55182L594.2923 193.58511C 597.60114 192.04779 602.0652 194.6095 604.242 199.2948C 606.4188 203.9801 605.4977 209.04385 602.18884 210.58118z" stroke="none" fill="#3F3D56" fill-rule="nonzero" />
    <path transform="matrix(1 0 0 1 -148.79073 -36.89661)"  d="M621.7992 423.44357C 610.86395 428.5347 610.6838 451.33856 614.11273 458.72742L614.11273 458.72742L620.32654 472.10162L659.9359 453.6986L653.7221 440.3244C 650.2865 432.93863 632.74243 418.3697 621.7992 423.44357z" stroke="none" fill="#3F3D56" fill-rule="nonzero" />
    <path transform="matrix(1 0 0 1 -148.79073 -36.89661)"  d="M440.1517 377.92487C 436.2897 380.49805 432.337 374.37363 436.27322 371.91467C 440.135 369.34164 444.08774 375.4661 440.1517 377.92487z" stroke="none" fill="#E6E6E6" fill-rule="nonzero" />
    <path transform="matrix(1 0 0 1 -148.79073 -36.89661)"  d="M842.1517 289.92487C 838.2897 292.49805 834.337 286.37363 838.2732 283.91467C 842.135 281.34164 846.0877 287.4661 842.1517 289.92487z" stroke="none" fill="#E6E6E6" fill-rule="nonzero" />
    <path transform="matrix(1 0 0 1 -148.79073 -36.89661)"  d="M568.1517 359.92487C 564.2897 362.49805 560.337 356.37363 564.2732 353.91467C 568.135 351.34164 572.0877 357.4661 568.1517 359.92487z" stroke="none" fill="#E6E6E6" fill-rule="nonzero" />
    <path transform="matrix(1 0 0 1 -148.79073 -36.89661)"  d="M440.1517 599.92487C 436.2897 602.49805 432.337 596.3736 436.27322 593.9147C 440.135 591.3417 444.08774 597.46606 440.1517 599.92487z" stroke="none" fill="#E6E6E6" fill-rule="nonzero" />
    <path transform="matrix(1 0 0 1 -148.79073 -36.89661)"  d="M637.1517 98.92488C 633.2897 101.49807 629.337 95.37364 633.2732 92.9147C 637.135 90.34165 641.0877 96.46609 637.1517 98.92488z" stroke="none" fill="#E6E6E6" fill-rule="nonzero" />
    <path transform="matrix(1 0 0 1 -148.79073 -36.89661)"  d="M447.1517 216.92488C 443.2897 219.49808 439.337 213.37364 443.27322 210.9147C 447.135 208.34164 451.08774 214.4661 447.1517 216.92488z" stroke="none" fill="#E6E6E6" fill-rule="nonzero" />
    <path d="M571.639 146.2L569.182 145.661L569.72 143.203L568.082 142.844L567.543 145.302L565.086 144.764L564.727 146.402L567.184 146.941L566.646 149.398L568.284 149.757L568.823 147.299L571.28 147.838L571.639 146.2L571.639 146.2" stroke="none" fill="#E6E6E6" fill-rule="nonzero" />
    <path d="M171.542 350.978L169.085 350.439L169.623 347.982L167.985 347.623L167.446 350.08L164.988 349.542L164.629 351.18L167.087 351.719L166.549 354.177L168.187 354.535L168.726 352.078L171.183 352.616L171.542 350.978L171.542 350.978" stroke="none" fill="#E6E6E6" fill-rule="nonzero" />
    <path transform="matrix(1 0 0 1 -148.79073 -36.89661)"  d="M824.22 492.33286C 819.96234 494.30502 814.9118 492.45883 812.9298 488.20578L812.9298 488.20578L802.81726 466.44028C 800.8454 462.18405 802.6942 457.13504 806.9483 455.15857C 811.20233 453.1821 816.25336 455.02536 818.2345 459.27728L818.2345 459.27728L828.34705 481.0428C 830.31915 485.30035 828.47296 490.35086 824.22 492.33286z" stroke="none" fill="#3F3D56" fill-rule="nonzero" />
    <path transform="matrix(1 0 0 1 -148.79073 -36.89661)"  d="M652.22 572.3329C 647.96234 574.30505 642.9118 572.4588 640.9298 568.2058L640.9298 568.2058L630.81726 546.4403C 628.83923 542.1829 630.687 537.1282 634.9444 535.15015C 639.2017 533.1721 644.2565 535.0199 646.2345 539.2773L646.2345 539.2773L656.34705 561.0428C 658.31915 565.3004 656.47296 570.35095 652.22 572.3329z" stroke="none" fill="#3F3D56" fill-rule="nonzero" />
    <path transform="matrix(1 0 0 1 -148.79073 -36.89661)"  d="M808.6418 444.7781L740.83594 476.2816C 736.5189 469.5655 723.5054 435.14893 726.4274 424.93765L726.4274 424.93765L727.8617 413.5146L768.34784 393.65152L777.3192 401.15652C 789.95917 396.88315 808.53925 428.20456 808.6418 444.7781z" stroke="none" fill="#E6E6E6" fill-rule="nonzero" />
    <path transform="matrix(1 0 0 1 -148.79073 -36.89661)"  d="M777.1618 442.59375L760.0149 450.56046C 756.70605 452.09778 751.6714 448.3078 748.7933 442.1132C 745.91516 435.91858 746.2657 429.62653 749.57446 428.0892L749.57446 428.0892L766.7214 420.1225C 770.0302 418.58517 775.0649 422.37515 777.943 428.56976C 780.8211 434.76437 780.4706 441.05643 777.1618 442.59375z" stroke="none" fill="#3F3D56" fill-rule="nonzero" />
    <path d="M482.951 446.691L476.39 432.254L480.167 430.512L486.708 444.903L581.423 654.909L577.65 656.662" stroke="none" fill="#3F3D56" fill-rule="nonzero" />
    <path transform="matrix(1 0 0 1 -148.79073 -36.89661)"  d="M696.6074 495.9814L628.8015 527.4849C 618.7984 522.32 603.51044 488.52393 614.393 476.141L614.393 476.141L615.8273 464.71793L656.3134 444.85486L665.2848 452.35986C 674.5873 455.214 692.6967 487.54053 696.6074 495.9814z" stroke="none" fill="#E6E6E6" fill-rule="nonzero" />
    <path transform="matrix(1 0 0 1 -148.79073 -36.89661)"  d="M663.73193 490.7935L646.585 498.7602C 643.2762 500.29752 638.55457 497.18137 636.06116 491.81473C 633.56775 486.4481 634.2313 480.8299 637.54016 479.29257L637.54016 479.29257L654.6871 471.32587C 657.9959 469.78854 662.7175 472.9047 665.21094 478.27133C 667.70435 483.63797 667.0408 489.25616 663.73193 490.7935z" stroke="none" fill="#3F3D56" fill-rule="nonzero" />
    <path d="M274.29144 204.8449C 274.29144 233.28757 264.23544 257.56488 244.12346 277.67688C 224.01147 297.7889 199.73413 307.8449 171.29146 307.8449C 142.84879 307.8449 118.57146 297.7889 98.45946 277.67688C 78.34746 257.56488 68.29146 233.28757 68.29146 204.8449C 68.29146 176.40222 78.34746 152.1249 98.45946 132.0129C 118.57146 111.900894 142.84879 101.844894 171.29146 101.844894C 199.73413 101.844894 224.01147 111.900894 244.12346 132.0129C 264.23544 152.1249 274.29144 176.40222 274.29144 204.8449C 274.29144 206.04347 274.27054 207.2417 274.2287 208.43954" stroke="none" fill="#FF6584" fill-rule="nonzero" />
    <path transform="matrix(1 0 0 1 -148.79073 -36.89661)"  d="M742.39624 349.02054L804.98944 166.21153L736.2582 346.8322C 735.3245 348.00964 735.26276 349.65668 736.1055 350.90073C 736.9483 352.1448 738.50073 352.69827 739.9405 352.26797C 741.3802 351.83765 742.37427 350.52304 742.3962 349.02054L742.3962 349.02054L742.39624 349.02054z" stroke="none" fill="#F0F0F0" fill-rule="nonzero" fill-opacity="0.29803923" />
    <path transform="matrix(1 0 0 1 -148.79073 -36.89661)"  d="M901.95013 240.05453C 889.697 244.12677 876.1132 248.12704 861.19867 252.05536C 784.0535 272.36636 680.6489 288.20966 570.0331 296.66806C 459.41772 305.12634 354.8057 305.18753 275.46957 296.84232C 236.82237 292.77655 206.25462 286.92914 184.61589 279.4613C 161.70647 271.556 149.66866 262.0294 148.83636 251.14766C 147.21562 229.94798 189.04895 211.28912 224.42831 199.3695L224.42831 199.3695L225.3865 202.2124C 176.80128 218.58115 150.6779 235.879 151.8281 250.9191C 153.29239 270.07504 198.47246 285.7254 275.7834 293.85867C 354.9452 302.18567 459.3639 302.12183 569.8048 293.6773C 680.2449 285.232 783.4597 269.41992 860.4351 249.15399C 935.60864 229.36342 977.8856 207.02478 976.4207 187.86853C 975.2044 171.96387 943.8535 158.35817 888.143 149.55612L888.143 149.55612L888.6113 146.59312C 929.0913 152.98886 977.70386 165.30136 979.4124 187.63988C 980.2442 198.52176 969.7947 209.76724 948.3535 221.06387C 936.13104 227.5031 920.6014 233.856 901.95013 240.05453z" stroke="none" fill="#3F3D56" fill-rule="nonzero" />
    <path d="M794.1276 375.13623C 794.1277 378.0916 793.08276 380.61417 790.993 382.70392C 788.9032 384.7937 786.3807 385.83856 783.4253 385.83856C 780.47 385.83856 777.9474 384.7937 775.8576 382.70392C 773.7679 380.61417 772.723 378.0916 772.72296 375.13623C 772.723 372.18088 773.7679 369.65833 775.8576 367.56854C 777.9474 365.4788 780.47 364.4339 783.4253 364.4339C 786.3807 364.4339 788.9032 365.4788 790.993 367.56854C 793.08276 369.65833 794.1277 372.18088 794.1276 375.13623C 794.1277 375.26077 794.1255 375.38528 794.1211 375.50974" stroke="none" fill="#FF6584" fill-rule="nonzero" />
    <path d="M862.1276 665.1362C 862.1277 668.0916 861.08276 670.61414 858.993 672.7039C 856.90326 674.7937 854.38074 675.83856 851.4253 675.83856C 848.47 675.83856 845.9474 674.7937 843.8576 672.7039C 841.7679 670.61414 840.723 668.0916 840.72296 665.1362C 840.723 662.1809 841.7679 659.6583 843.8576 657.56854C 845.9474 655.47876 848.47 654.4339 851.4253 654.4339C 854.38074 654.4339 856.90326 655.47876 858.993 657.56854C 861.08276 659.6583 862.1277 662.1809 862.1276 665.1362C 862.1277 665.2608 862.1255 665.3853 862.1211 665.50977" stroke="none" fill="#F2F2F2" fill-rule="nonzero" />
    <path d="M507.29147 720.1362C 507.2915 725.8983 505.2543 730.81647 501.1799 734.8908C 497.10556 738.9652 492.18738 741.0024 486.42532 741.0024C 480.66333 741.0024 475.74512 738.9652 471.67075 734.8908C 467.59637 730.81647 465.5592 725.8983 465.55917 720.1362C 465.5592 714.3742 467.59637 709.45605 471.67075 705.38165C 475.74512 701.30725 480.66333 699.2701 486.42532 699.2701C 492.18738 699.2701 497.10556 701.30725 501.1799 705.38165C 505.2543 709.45605 507.2915 714.3742 507.29147 720.1362C 507.2915 720.379 507.28726 720.62177 507.27875 720.86444" stroke="none" fill="#F2F2F2" fill-rule="nonzero" />
    <path d="M338.12766 454.13623C 338.12766 457.0916 337.08276 459.61417 334.993 461.70392C 332.90326 463.7937 330.3807 464.8386 327.42532 464.83856C 324.46997 464.8386 321.9474 463.7937 319.85764 461.70392C 317.76788 459.61417 316.723 457.0916 316.723 454.13623C 316.723 451.18088 317.76788 448.65833 319.85764 446.56854C 321.9474 444.47882 324.46997 443.43393 327.42532 443.4339C 330.3807 443.43393 332.90326 444.47882 334.993 446.56854C 337.08276 448.65833 338.12766 451.18088 338.12766 454.13623C 338.12766 454.26077 338.1255 454.38525 338.12115 454.50974" stroke="none" fill="#3F3D56" fill-rule="nonzero" />
    <path d="M687.226 478.768L733.402 490.721L761.723 546.349L713.843 548.227L687.226 478.768L687.226 478.768" stroke="none" fill="#E6E6E6" fill-rule="nonzero" />
    <path d="M580.645 398.574L606.059 424.002L670.606 563.557L658.722 573.824L580.645 398.574L580.645 398.574" stroke="none" fill="#CCCCCC" fill-rule="nonzero" />
    <path d="M525.386 421.624L527.38 457.52L588.304 598.694L603.88 596.688L525.386 421.624L525.386 421.624" stroke="none" fill="#CCCCCC" fill-rule="nonzero" />
    <path d="M523.723 566.637L498.854 607.339L517.187 667.008L552.9 635.061L523.723 566.637L523.723 566.637" stroke="none" fill="#E6E6E6" fill-rule="nonzero" />
    <path transform="matrix(1 0 0 1 -148.79073 -36.89661)"  d="M892.1955 628.5437C 879.2834 628.5437 865.1312 628.0558 849.73895 627.07983C 770.1252 622.0242 667.00116 604.447 559.3629 577.58765C 451.72522 550.7283 352.43274 517.7937 279.77747 484.85327C 244.38489 468.8064 217.22131 453.61694 199.04211 439.7058C 179.79504 424.97882 171.37611 412.1418 174.01819 401.55298C 179.16614 380.92407 224.74919 376.4109 262.08218 376.25757L262.08218 376.25757L262.09488 379.25757C 210.82681 379.46802 180.5812 387.6443 176.92935 402.27957C 172.2775 420.9197 210.21597 450.0203 281.01627 482.12088C 353.51187 514.989 452.62173 547.8601 560.0895 574.6775C 667.55676 601.4939 770.49084 619.0408 849.9293 624.0857C 927.50793 629.0134 974.6725 621.1482 979.32385 602.50757C 983.18567 587.031 957.7257 564.2322 907.6344 538.3093L907.6344 538.3093L909.0133 535.64526C 945.4103 554.4812 987.6588 581.4968 982.235 603.23413C 979.59247 613.823 966.1296 621.199 942.2199 625.157C 928.5905 627.41284 911.8498 628.5437 892.1955 628.5437z" stroke="none" fill="#3F3D56" fill-rule="nonzero" />
</g>
</svg>